<svg xmlns="http://www.w3.org/2000/svg" viewBox="0 0 631.58 223.35"><defs><style>.cls-1{fill:#fff;}</style></defs><title>ikcamp</title><g id="图层_2" data-name="图层 2"><g id="图层_1-2" data-name="图层 1"><path class="cls-1" d="M28.08,0h6.78a1,1,0,0,1,1,1V56.53a5,5,0,0,1-5,5H24.08a1,1,0,0,1-1-1V5A5,5,0,0,1,28.08,0Z"/><path class="cls-1" d="M28.08,0h6.78a1,1,0,0,1,1,1V56.53a5,5,0,0,1-5,5H24.08a1,1,0,0,1-1-1V5a5,5,0,0,1,5-5Z" transform="translate(17.56 71.67) rotate(-120)"/><path class="cls-1" d="M28.08,0h6.78a1,1,0,0,1,1,1V56.53a5,5,0,0,1-5,5H24.08a1,1,0,0,1-1-1V5a5,5,0,0,1,5-5Z" transform="translate(-11.91 40.9) rotate(-60)"/><path class="cls-1" d="M36.57,72.06H30.72A10.91,10.91,0,0,0,19.8,83v65.82a9.35,9.35,0,0,0,9.35,9.35h7.41A3.12,3.12,0,0,0,39.68,155V75.17A3.12,3.12,0,0,0,36.57,72.06Z"/><path class="cls-1" d="M119.92,76.87,183.27,8a3.69,3.69,0,0,0,1-2.57c0-1.44-.95-3-3.61-3H165.5a5.71,5.71,0,0,0-4.71,2.13L100.93,71.1v-68A3.12,3.12,0,0,0,97.81,0H83.53a3.12,3.12,0,0,0-3.12,3.12V148.79a9.35,9.35,0,0,0,9.35,9.35h8a3.12,3.12,0,0,0,3.12-3.12V84.79l58.38,71a6.33,6.33,0,0,0,5.14,2.34h16.47c2.33,0,3.4-1.43,3.4-2.76a4.46,4.46,0,0,0-1.21-2.95Z"/><path class="cls-1" d="M257.91,41.6s-17.81-2.34-26.5-2.34c-28.56,0-45.61,19.42-45.61,51.95v16.47c0,32,17.48,51.95,45.61,51.95a152.59,152.59,0,0,0,26.51-2.33c3.51-.66,4.75-2,4.75-5.29v-7.6c0-2.25-1.74-3.82-4.24-3.82h-.92a206.53,206.53,0,0,1-26.1,1.47c-17.08,0-25.74-11.57-25.74-34.39V91.21c0-22.82,8.66-34.39,25.74-34.39a207.27,207.27,0,0,1,26.18,1.48h.84c2.5,0,4.24-1.57,4.24-3.82v-7.6C262.67,43.56,257.91,41.6,257.91,41.6Z"/><path class="cls-1" d="M318,39.26A182.14,182.14,0,0,0,285.19,42c-3.31.47-5,2-5,4.66v7.39c0,2.6,1.58,4,4.45,4h1.12A306.94,306.94,0,0,1,318,56.4c16.2,0,21.94,6.07,21.94,23.2v7.79H325c-36.12,0-51.52,10.42-51.52,34.85v2.53c0,28.8,19.07,34.85,35.06,34.85,10.06,0,19.93-3,31.86-9.86h0a8.39,8.39,0,0,0,8.39,8.39h8a3.12,3.12,0,0,0,3.12-3.12V79.6C359.82,52.46,346.14,39.26,318,39.26Zm-24.68,85.3V122c0-17,10.2-20,31.65-20h15v32.95c-10.66,5.73-19,8.18-27.85,8.18C300.83,143.12,293.32,140,293.32,124.56Z"/><path class="cls-1" d="M486.08,39.05c-10.44,0-22.39,2.84-33.83,8a1.61,1.61,0,0,1-1.82-.36c-5.08-5.22-11.64-7.67-20.49-7.67s-18.32,2.7-27.79,8a1.6,1.6,0,0,1-2.38-1.41h0A4.73,4.73,0,0,0,395,40.94H384.61a4.73,4.73,0,0,0-4.73,4.73V147.25a10.9,10.9,0,0,0,10.9,10.9H395a4.73,4.73,0,0,0,4.73-4.73V65.59a1.59,1.59,0,0,1,.89-1.44c6.94-3.41,16.5-7.55,24.22-7.55,10.35,0,15.6,3.33,15.6,21.52v69.06a11,11,0,0,0,11,11h4.2a4.73,4.73,0,0,0,4.73-4.73V78.12a67.71,67.71,0,0,0-1.44-14.69,1.61,1.61,0,0,1,1-1.87c8.93-3.29,16.52-5,22.58-5,12.66,0,18.56,7,18.56,21.94v70.24a9.36,9.36,0,0,0,9.36,9.36h5.79a4.73,4.73,0,0,0,4.73-4.73V78.54C520.93,45.9,502,39.05,486.08,39.05Z"/><path class="cls-1" d="M584.91,39.26a173.74,173.74,0,0,0-39,4.87c-4.2.93-4.94,2.52-4.94,5.49V214a9.35,9.35,0,0,0,9.35,9.35h6.47a4.05,4.05,0,0,0,4.05-4.05V59a.92.92,0,0,1,.77-.92,158,158,0,0,1,23.27-1.88c18.53,0,26.79,11.06,26.79,35.87v15.2c0,24.51-8.26,35.44-26.79,35.44-3.37,0-7.34-.22-12-.62a4.06,4.06,0,0,0-4.42,4v8.7a4,4,0,0,0,3.63,4,126.28,126.28,0,0,0,12.82.78c30.53,0,46.67-18.11,46.67-52.37V92.05C631.58,58,615,39.26,584.91,39.26Z"/></g></g></svg>
